<?xml version="1.0" encoding="UTF-8" standalone="no"?>
<!-- Created with Inkscape (http://www.inkscape.org/) -->

<svg
   xmlns:dc="http://purl.org/dc/elements/1.1/"
   xmlns:cc="http://creativecommons.org/ns#"
   xmlns:rdf="http://www.w3.org/1999/02/22-rdf-syntax-ns#"
   xmlns:svg="http://www.w3.org/2000/svg"
   xmlns="http://www.w3.org/2000/svg"
   xmlns:sodipodi="http://sodipodi.sourceforge.net/DTD/sodipodi-0.dtd"
   xmlns:inkscape="http://www.inkscape.org/namespaces/inkscape"
   width="200mm"
   height="140mm"
   viewBox="0 0 708.66157 496.06311"
   id="svg2"
   version="1.1"
   inkscape:version="0.91 r13725"
   sodipodi:docname="skyline.svg">
  <defs
     id="defs4" />
  <sodipodi:namedview
     id="base"
     pagecolor="#ffffff"
     bordercolor="#666666"
     borderopacity="1.0"
     inkscape:pageopacity="0.0"
     inkscape:pageshadow="2"
     inkscape:zoom="0.98994949"
     inkscape:cx="274.17337"
     inkscape:cy="239.1878"
     inkscape:document-units="px"
     inkscape:current-layer="layer1"
     showgrid="false"
     inkscape:window-width="1436"
     inkscape:window-height="855"
     inkscape:window-x="4"
     inkscape:window-y="1"
     inkscape:window-maximized="1" />
  <metadata
     id="metadata7">
    <rdf:RDF>
      <cc:Work
         rdf:about="">
        <dc:format>image/svg+xml</dc:format>
        <dc:type
           rdf:resource="http://purl.org/dc/dcmitype/StillImage" />
        <dc:title></dc:title>
      </cc:Work>
    </rdf:RDF>
  </metadata>
  <g
     inkscape:label="Layer 1"
     inkscape:groupmode="layer"
     id="layer1"
     transform="translate(0,-556.2991)">
    <path
       style="fill:#888d92;fill-opacity:1;fill-rule:evenodd;stroke:none;stroke-width:1px;stroke-linecap:butt;stroke-linejoin:miter;stroke-opacity:1"
       d="m 131.21972,913.51586 34.28571,0 0,-67.14285 22.85714,-11.42858 30.00001,0 8.57143,8.57143 0,27.14286 18.57142,-7.14286 -4.37237,-201.47061 7.07651,-2.38797 -0.35208,-6.67367 -7.56126,-4.17804 0.50507,-16.74545 50.41842,-29.29187 77.14286,17.14286 0.71429,23.57143 -8.78064,1.47932 0.92349,9.23496 6.42857,2.14286 0.71429,197.17618 22.85714,10 0,-140 74.28571,-14.28571 55.71429,14.28571 28.57143,41.42857 0,157.14286 27.14285,-2.85714 -1.42857,-82.85715 47.14286,-1.42857 18.57143,5.71429 1.42857,81.42857 14.28571,0 1.42858,41.42857 31.42857,7.14286 0,28.57139 47.14285,5.71429 0,50 -746.5859835,2.9587 -0.4184205,-65.12259 40.679235,-9.79037 0.273121,-58.27775 12.394954,-18.8818 17.445718,-1.70919 1.283275,29.60554 48.760451,-0.69904 1.28328,33.64615 18.45587,-3.7295 z"
       id="path4147"
       inkscape:connector-curvature="0"
       sodipodi:nodetypes="cccccccccccccccccccccccccccccccccccccccccccccccc" />
  </g>
</svg>
