<?xml version="1.0" encoding="UTF-8" standalone="no"?>
<!-- Created with Inkscape (http://www.inkscape.org/) -->

<svg
   xmlns:dc="http://purl.org/dc/elements/1.1/"
   xmlns:cc="http://creativecommons.org/ns#"
   xmlns:rdf="http://www.w3.org/1999/02/22-rdf-syntax-ns#"
   xmlns:svg="http://www.w3.org/2000/svg"
   xmlns="http://www.w3.org/2000/svg"
   xmlns:sodipodi="http://sodipodi.sourceforge.net/DTD/sodipodi-0.dtd"
   xmlns:inkscape="http://www.inkscape.org/namespaces/inkscape"
   width="111mm"
   height="76mm"
   viewBox="0 0 393.30711 269.29127"
   id="svg4191"
   version="1.1"
   inkscape:version="0.91 r13725"
   sodipodi:docname="treeline.svg">
  <defs
     id="defs4193" />
  <sodipodi:namedview
     id="base"
     pagecolor="#ffffff"
     bordercolor="#666666"
     borderopacity="1.0"
     inkscape:pageopacity="0.0"
     inkscape:pageshadow="2"
     inkscape:zoom="1.4"
     inkscape:cx="144.90569"
     inkscape:cy="105.66326"
     inkscape:document-units="px"
     inkscape:current-layer="layer1"
     showgrid="false"
     inkscape:window-width="1436"
     inkscape:window-height="855"
     inkscape:window-x="4"
     inkscape:window-y="1"
     inkscape:window-maximized="1" />
  <metadata
     id="metadata4196">
    <rdf:RDF>
      <cc:Work
         rdf:about="">
        <dc:format>image/svg+xml</dc:format>
        <dc:type
           rdf:resource="http://purl.org/dc/dcmitype/StillImage" />
        <dc:title />
      </cc:Work>
    </rdf:RDF>
  </metadata>
  <g
     inkscape:label="Layer 1"
     inkscape:groupmode="layer"
     id="layer1"
     transform="translate(0,-783.07094)">
    <path
       style="fill:#6a7076;fill-rule:evenodd;stroke:none;stroke-width:1px;stroke-linecap:butt;stroke-linejoin:miter;stroke-opacity:1;fill-opacity:1"
       d="m 298.9668,789.56641 -3.62696,8.67968 c -2.5796,2.08684 -5.9721,2.58639 -9.14585,3.1037 -1.08677,0.19062 -2.21392,0.24048 -3.27706,0.51352 -0.94375,0.5029 -0.93303,2.13048 0.0675,2.56638 l 6.53906,4.24219 c 0.79074,0.7115 0.23127,2.26131 -0.83399,2.29687 l -15.22265,2.05859 c -1.17124,0.70119 -0.94821,2.75075 0.34765,3.18164 l 9.14453,4.37696 c 1.04405,-0.21221 1.90972,1.24122 1.2129,2.05273 -2.82324,1.15632 -5.93281,1.05433 -8.89037,1.61067 l -14.92409,1.87371 c -1.09984,-0.18517 -2.10001,1.12514 -1.6289,2.13672 6.33505,2.56209 12.99832,4.14958 19.50488,6.19693 l 7.35254,2.15072 c 1.02165,-0.0658 1.79677,1.3486 1.07031,2.12696 -3.52007,1.76664 -7.43433,2.45385 -11.21029,3.45694 l -14.14908,3.46102 c -1.15201,-0.0406 -1.52368,1.86605 -0.45704,2.2793 1.68558,0.64015 3.4573,1.01375 5.17239,1.56595 l 20.20457,5.8735 c 1.34215,1.19876 0.68441,3.77037 -1.06641,4.17969 l -21.4082,7.59766 c -1.31934,0.9877 -0.70676,3.4444 0.92578,3.68945 l 21.71289,6.22852 c 2.46973,1.25962 3.85691,4.19265 3.47656,6.9082 -1.2168,36.79091 -2.44987,73.58127 -3.69922,110.37109 -0.42443,6.412 -2.61743,12.6088 -5.7832,18.166 -1.63648,2.0423 -4.28712,2.8035 -6.75977,3.2442 -11.22505,1.2116 -22.53076,1.1116 -33.80337,1.3607 -3.40213,0.061 -6.80426,0.1215 -10.20639,0.1822 -5.07379,-2.5677 -8.95028,-7.6265 -9.62605,-13.3285 -0.3902,-4.79597 -0.55949,-9.60754 -0.78606,-14.41366 -1.63098,-6.53368 -3.27421,-13.06428 -4.92969,-19.5918 -0.0393,-2.79735 0.68077,-5.52434 0.9999,-8.28836 l 0.90635,-5.99875 c 1.0707,-1.7991 3.44451,-2.65194 5.42578,-2.00585 l 19.92383,4.12304 c 0,0 5.6431,-0.12487 7.56445,-1.87304 3.63719,-3.30934 4.53723,-11.58047 4.87863,-13.92216 -1.79491,-7.57949 -4.42617,-12.50865 -7.1412,-19.77708 l -0.97626,-12.86522 c 0.0579,-9.27981 -5.50185,-8.55876 -5.27484,-17.83594 l -0.99219,-6.73828 c -1.52024,-2.66885 -3.21248,-5.42833 -3.39129,-8.57794 l -1.80402,-14.77362 -3.57422,-6.75391 -11.0625,-3.47265 -11.66015,-0.88672 c -2.50951,2.01212 -11.08914,0.6814 -12.61161,3.4389 -1.14751,2.78722 -10.23257,8.87863 -11.31998,11.68962 -4.48455,7.08954 -1.76069,9.41957 -6.37868,16.42281 -3.24399,0.68501 1.28709,6.46467 -2.01005,6.67328 -2.05015,0.49101 -3.32298,2.3149 -4.84133,3.6222 -4.04611,3.84635 -8.07961,7.70589 -12.10202,11.57702 -0.72641,2.67955 -1.04573,5.4438 -1.41016,8.18945 1.26974,8.45884 4.63233,16.44789 8.71094,23.91211 l 1.72851,3.39063 20.0586,15.35742 3.96093,6.61718 -5.58984,44.99222 c -1.12077,2.0095 -2.61465,3.7953 -4.32031,5.334 -6.31125,3.2914 -13.56599,4.4954 -20.63282,4.0742 -12.08138,-0.3093 -24.16276,-0.6185 -36.24414,-0.9278 -4.32096,-0.4882 -8.64192,-0.9765 -12.96289,-1.4648 -2.2211,-1.9425 -4.06296,-4.2616 -5.88867,-6.5664 -3.72635,-8.82212 -5.56844,-10.26285 -7.742172,-19.5462 l -1.835951,-8.18037 0.07422,-7.1836 c 4.718993,-3.53046 10.464523,-5.41189 16.236323,-6.3164 l 16.2168,-3.27735 c 4.89845,-5.71851 8.19672,-12.9556 8.59288,-20.52641 0.0375,-2.69878 0.0325,-5.39918 0.0536,-8.09859 l -6.60339,-23.89908 -23.96846,-4.03571 c -3.43245,-0.68137 -6.92656,-0.9499 -10.40626,-1.26757 l -13.720139,-5.73996 c -4.689742,2.7523 -6.15265,11.545 -9.898159,15.40457 -1.794635,1.64251 -8.335966,5.3845 -10.686383,4.92718 -3.02502,-0.12637 -5.606706,-1.87958 -8.28711,-3.08203 L 48.5451,907.90701 c -4.798684,-0.73681 -12.185423,0.28982 -15.921544,3.51657 -2.876881,2.58337 -13.667703,-0.34906 -15.14291,3.3082 -0.786123,1.93825 0.941492,10.19264 1.525167,12.19303 0.568674,2.15805 8.760934,1.9497 9.496191,4.04171 0.503204,1.47138 -1.907465,5.24217 -2.43782,6.71983 -1.070432,4.35729 -15.607944,2.93892 -15.550194,7.49032 -0.0615,2.7884 7.938223,18.15861 9.011456,20.7692 1.456933,2.74451 13.610419,-0.32103 15.858783,1.73989 4.032844,3.57741 10.32432,3.47771 14.305279,7.10916 2.170465,1.2896 4.792647,1.02432 7.205078,0.92578 4.211013,-0.2738 8.486873,-1.1903 12.679688,-0.26172 4.979511,1.28981 8.991907,5.18327 11.106329,9.79069 2.329401,4.91408 2.836365,10.44686 2.799427,15.81823 -0.02398,6.8797 -0.1687,5.7883 -1.172423,12.6041 -0.578635,2.5066 -1.701831,4.846 -2.826851,7.1452 -1.37938,2.7389 -2.864268,5.4299 -4.485022,8.0321 -1.658055,2.3487 -4.070278,4.2243 -6.887195,4.9272 -8.056311,2.8535 -16.327901,5.0283 -24.519995,7.4459 -13.643429,3.9395 -27.286857,7.8791 -40.9302859,11.8186 86.8781659,0.1161 173.7563219,0.2462 260.6345719,0.2849 l 128.54316,0.072 c -21.78471,-11.5375 -43.49957,-23.2332 -65.7606,-33.8371 -4.81143,-2.291 -9.65662,-4.5103 -14.48354,-6.7683 -2.51441,-12.1917 -3.05398,-24.6625 -3.81138,-37.05381 -0.78467,-21.29534 -1.61698,-42.5965 -1.57796,-63.91004 0.14202,-9.40422 1.6757,-18.70945 3.10241,-27.98417 0.31675,-1.71248 0.48725,-3.48369 1.16388,-5.10279 0.58866,-1.33506 1.73564,-2.51538 3.23451,-2.72538 3.0153,-0.64657 6.11696,-0.25605 9.16668,-0.16488 3.70867,0.14686 7.48335,0.47077 11.14095,-0.33745 1.39557,-0.26848 2.01516,-2.13471 1.24692,-3.2762 -0.76409,-1.18717 -2.20769,-1.58437 -3.33289,-2.33059 -7.20107,-4.055 -14.87545,-7.15851 -22.33508,-10.68894 1.78487,-0.45728 3.64636,-0.38572 5.45984,-0.66123 l 16.70813,-1.64736 4.66407,-1.27735 c 1.03216,-1.2672 0.0637,-3.47968 -1.56641,-3.58398 l -21.41992,-3.5 -3.95899,-1.94141 c -0.87999,-1.45651 0.45162,-3.58141 2.14063,-3.45312 l 21.1875,-1.51758 c 0.89284,0.56043 2.20833,-0.43309 1.91015,-1.44531 -8.14687,-2.29521 -16.3134,-4.5201 -24.49414,-6.69141 -0.84631,0.0142 -1.97921,-0.43574 -2.04101,-1.4043 0.0213,-0.88452 1.01942,-1.25961 1.76833,-1.3496 9.2057,-1.30791 18.448,-2.33659 27.68675,-3.37891 0.77494,0.27734 1.97332,0.0119 2.14843,-0.90821 0.03,-0.84342 -0.97016,-1.16305 -1.65625,-1.24023 -7.10002,-0.86728 -14.23547,-1.38249 -21.3689,-1.88144 l -4.80883,-0.34317 c -0.82261,0.24133 -2.07568,0.11963 -2.34375,-0.85352 -0.10694,-0.91582 0.99622,-1.26348 1.71289,-1.42578 3.2923,-1.10294 6.71749,-1.71126 10.10547,-2.4375 0.93065,0.045 2.36057,-0.62754 1.97461,-1.75 -0.52732,-0.98735 -1.79864,-0.93573 -2.75858,-1.08179 l -11.14377,-1.38891 c -0.9209,0.17754 -2.16315,-0.42908 -2.08984,-1.49023 0.33598,-1.13721 1.6352,-1.47416 2.65234,-1.71875 l 6.03907,-1.50782 c 1.04718,-0.49864 0.98074,-2.25345 -0.082,-2.69531 l -10.6289,-6.04297 c -1.52087,-1.36957 -2.04408,-3.42914 -3.09331,-5.12354 l -2.97505,-5.79052 c -0.35156,-0.12109 -0.22331,-0.1881 -0.35156,-0.12109 z"
       id="path4763"
       inkscape:connector-curvature="0"
       sodipodi:nodetypes="ccccccscccccccsssscccccccccccssscssccccasccscccsssssssssccsssscsccccccccccccccccccccccccccccccccccccccccccccccccccccccccccccccccccccccccccccccccccc" />
  </g>
</svg>
